<svg width="24" height="24" viewBox="0 0 24 24" fill="none" xmlns="http://www.w3.org/2000/svg">
<path d="M9.92501 21.125L7.45001 16.525L2.85001 14.05L4.62501 12.3L8.25001 12.925L10.8 10.375L2.87501 7L4.97501 4.85L14.6 6.55L17.7 3.45C18.0833 3.06667 18.5583 2.875 19.125 2.875C19.6917 2.875 20.1667 3.06667 20.55 3.45C20.9333 3.83333 21.125 4.30417 21.125 4.8625C21.125 5.42083 20.9333 5.89167 20.55 6.275L17.425 9.4L19.125 19L17 21.125L13.6 13.2L11.05 15.75L11.7 19.35L9.92501 21.125Z" fill="#EF5F4C"/>
</svg>
