<svg width="160" height="34" viewBox="0 0 160 34" fill="none" xmlns="http://www.w3.org/2000/svg">
<path d="M10.1266 27C8.72574 27 7.40928 26.7375 6.17721 26.2125C4.94515 25.6875 3.87342 24.975 2.96203 24.075C2.05063 23.175 1.32911 22.1167 0.797468 20.9C0.265823 19.6833 0 18.3833 0 17C0 15.6167 0.265823 14.3167 0.797468 13.1C1.32911 11.8833 2.05063 10.825 2.96203 9.925C3.87342 9.025 4.94515 8.3125 6.17721 7.7875C7.40928 7.2625 8.72574 7 10.1266 7C11.5274 7 12.8439 7.2625 14.0759 7.7875C15.308 8.3125 16.3797 9.025 17.2911 9.925C18.2025 10.825 18.924 11.8833 19.4557 13.1C19.9873 14.3167 20.2532 15.6167 20.2532 17C20.2532 18.3833 19.9873 19.6833 19.4557 20.9C18.924 22.1167 18.2025 23.175 17.2911 24.075C16.3797 24.975 15.308 25.6875 14.0759 26.2125C12.8439 26.7375 11.5274 27 10.1266 27ZM9.11392 24.95V23C8.55696 23 8.08017 22.8042 7.68354 22.4125C7.28692 22.0208 7.08861 21.55 7.08861 21V20L2.22785 15.2C2.17722 15.5 2.1308 15.8 2.08861 16.1C2.04641 16.4 2.02532 16.7 2.02532 17C2.02532 19.0167 2.6962 20.7833 4.03797 22.3C5.37975 23.8167 7.07173 24.7 9.11392 24.95ZM16.1013 22.4C16.4388 22.0333 16.7426 21.6375 17.0127 21.2125C17.2827 20.7875 17.5063 20.3458 17.6835 19.8875C17.8608 19.4292 17.9958 18.9583 18.0886 18.475C18.1814 17.9917 18.2278 17.5 18.2278 17C18.2278 15.3667 17.7679 13.875 16.8481 12.525C15.9283 11.175 14.7004 10.2 13.1646 9.6V10C13.1646 10.55 12.9662 11.0208 12.5696 11.4125C12.173 11.8042 11.6962 12 11.1392 12H9.11392V14C9.11392 14.2833 9.01688 14.5208 8.82278 14.7125C8.62869 14.9042 8.38819 15 8.10127 15H6.07595V17H12.1519C12.4388 17 12.6793 17.0958 12.8734 17.2875C13.0675 17.4792 13.1646 17.7167 13.1646 18V21H14.1772C14.616 21 15.0127 21.1292 15.3671 21.3875C15.7215 21.6458 15.9662 21.9833 16.1013 22.4Z" fill="#EF5F4C"/>
<path d="M47.7957 9.96V12.7H44.0757V24H40.6557V12.7H36.9357V9.96H47.7957ZM52.9321 14.7C53.3321 14.0867 53.8321 13.6067 54.4321 13.26C55.0321 12.9 55.6988 12.72 56.4321 12.72V16.34H55.4921C54.6388 16.34 53.9988 16.5267 53.5721 16.9C53.1454 17.26 52.9321 17.9 52.9321 18.82V24H49.5121V12.84H52.9321V14.7ZM57.3868 18.4C57.3868 17.2533 57.6001 16.2467 58.0268 15.38C58.4668 14.5133 59.0601 13.8467 59.8068 13.38C60.5534 12.9133 61.3868 12.68 62.3068 12.68C63.0934 12.68 63.7801 12.84 64.3668 13.16C64.9668 13.48 65.4268 13.9 65.7468 14.42V12.84H69.1668V24H65.7468V22.42C65.4134 22.94 64.9468 23.36 64.3468 23.68C63.7601 24 63.0734 24.16 62.2868 24.16C61.3801 24.16 60.5534 23.9267 59.8068 23.46C59.0601 22.98 58.4668 22.3067 58.0268 21.44C57.6001 20.56 57.3868 19.5467 57.3868 18.4ZM65.7468 18.42C65.7468 17.5667 65.5068 16.8933 65.0268 16.4C64.5601 15.9067 63.9868 15.66 63.3068 15.66C62.6268 15.66 62.0468 15.9067 61.5668 16.4C61.1001 16.88 60.8668 17.5467 60.8668 18.4C60.8668 19.2533 61.1001 19.9333 61.5668 20.44C62.0468 20.9333 62.6268 21.18 63.3068 21.18C63.9868 21.18 64.5601 20.9333 65.0268 20.44C65.5068 19.9467 65.7468 19.2733 65.7468 18.42ZM76.661 20.8L79.081 12.84H82.721L78.761 24H74.541L70.581 12.84H74.241L76.661 20.8ZM94.6805 18.24C94.6805 18.56 94.6605 18.8933 94.6205 19.24H86.8805C86.9339 19.9333 87.1539 20.4667 87.5405 20.84C87.9405 21.2 88.4272 21.38 89.0005 21.38C89.8539 21.38 90.4472 21.02 90.7805 20.3H94.4205C94.2339 21.0333 93.8939 21.6933 93.4005 22.28C92.9205 22.8667 92.3139 23.3267 91.5805 23.66C90.8472 23.9933 90.0272 24.16 89.1205 24.16C88.0272 24.16 87.0539 23.9267 86.2005 23.46C85.3472 22.9933 84.6805 22.3267 84.2005 21.46C83.7205 20.5933 83.4805 19.58 83.4805 18.42C83.4805 17.26 83.7139 16.2467 84.1805 15.38C84.6605 14.5133 85.3272 13.8467 86.1805 13.38C87.0339 12.9133 88.0139 12.68 89.1205 12.68C90.2005 12.68 91.1605 12.9067 92.0005 13.36C92.8405 13.8133 93.4939 14.46 93.9605 15.3C94.4405 16.14 94.6805 17.12 94.6805 18.24ZM91.1805 17.34C91.1805 16.7533 90.9805 16.2867 90.5805 15.94C90.1805 15.5933 89.6805 15.42 89.0805 15.42C88.5072 15.42 88.0205 15.5867 87.6205 15.92C87.2339 16.2533 86.9939 16.7267 86.9005 17.34H91.1805ZM99.9048 9.2V24H96.4848V9.2H99.9048ZM106.623 12.68C107.41 12.68 108.097 12.84 108.683 13.16C109.283 13.48 109.743 13.9 110.063 14.42V12.84H113.483V23.98C113.483 25.0067 113.277 25.9333 112.863 26.76C112.463 27.6 111.843 28.2667 111.003 28.76C110.177 29.2533 109.143 29.5 107.903 29.5C106.25 29.5 104.91 29.1067 103.883 28.32C102.857 27.5467 102.27 26.4933 102.123 25.16H105.503C105.61 25.5867 105.863 25.92 106.263 26.16C106.663 26.4133 107.157 26.54 107.743 26.54C108.45 26.54 109.01 26.3333 109.423 25.92C109.85 25.52 110.063 24.8733 110.063 23.98V22.4C109.73 22.92 109.27 23.3467 108.683 23.68C108.097 24 107.41 24.16 106.623 24.16C105.703 24.16 104.87 23.9267 104.123 23.46C103.377 22.98 102.783 22.3067 102.343 21.44C101.917 20.56 101.703 19.5467 101.703 18.4C101.703 17.2533 101.917 16.2467 102.343 15.38C102.783 14.5133 103.377 13.8467 104.123 13.38C104.87 12.9133 105.703 12.68 106.623 12.68ZM110.063 18.42C110.063 17.5667 109.823 16.8933 109.343 16.4C108.877 15.9067 108.303 15.66 107.623 15.66C106.943 15.66 106.363 15.9067 105.883 16.4C105.417 16.88 105.183 17.5467 105.183 18.4C105.183 19.2533 105.417 19.9333 105.883 20.44C106.363 20.9333 106.943 21.18 107.623 21.18C108.303 21.18 108.877 20.9333 109.343 20.44C109.823 19.9467 110.063 19.2733 110.063 18.42ZM119.377 14.7C119.777 14.0867 120.277 13.6067 120.877 13.26C121.477 12.9 122.144 12.72 122.877 12.72V16.34H121.937C121.084 16.34 120.444 16.5267 120.017 16.9C119.591 17.26 119.377 17.9 119.377 18.82V24H115.957V12.84H119.377V14.7ZM123.832 18.4C123.832 17.2533 124.045 16.2467 124.472 15.38C124.912 14.5133 125.505 13.8467 126.252 13.38C126.999 12.9133 127.832 12.68 128.752 12.68C129.539 12.68 130.225 12.84 130.812 13.16C131.412 13.48 131.872 13.9 132.192 14.42V12.84H135.612V24H132.192V22.42C131.859 22.94 131.392 23.36 130.792 23.68C130.205 24 129.519 24.16 128.732 24.16C127.825 24.16 126.999 23.9267 126.252 23.46C125.505 22.98 124.912 22.3067 124.472 21.44C124.045 20.56 123.832 19.5467 123.832 18.4ZM132.192 18.42C132.192 17.5667 131.952 16.8933 131.472 16.4C131.005 15.9067 130.432 15.66 129.752 15.66C129.072 15.66 128.492 15.9067 128.012 16.4C127.545 16.88 127.312 17.5467 127.312 18.4C127.312 19.2533 127.545 19.9333 128.012 20.44C128.492 20.9333 129.072 21.18 129.752 21.18C130.432 21.18 131.005 20.9333 131.472 20.44C131.952 19.9467 132.192 19.2733 132.192 18.42ZM152.326 12.72C153.713 12.72 154.813 13.14 155.626 13.98C156.453 14.82 156.866 15.9867 156.866 17.48V24H153.466V17.94C153.466 17.22 153.273 16.6667 152.886 16.28C152.513 15.88 151.993 15.68 151.326 15.68C150.66 15.68 150.133 15.88 149.746 16.28C149.373 16.6667 149.186 17.22 149.186 17.94V24H145.786V17.94C145.786 17.22 145.593 16.6667 145.206 16.28C144.833 15.88 144.313 15.68 143.646 15.68C142.98 15.68 142.453 15.88 142.066 16.28C141.693 16.6667 141.506 17.22 141.506 17.94V24H138.086V12.84H141.506V14.24C141.853 13.7733 142.306 13.4067 142.866 13.14C143.426 12.86 144.06 12.72 144.766 12.72C145.606 12.72 146.353 12.9 147.006 13.26C147.673 13.62 148.193 14.1333 148.566 14.8C148.953 14.1867 149.48 13.6867 150.146 13.3C150.813 12.9133 151.54 12.72 152.326 12.72Z" fill="#EF5F4C"/>
</svg>
