<svg width="156" height="19" viewBox="0 0 156 19" fill="none" xmlns="http://www.w3.org/2000/svg">
<path d="M5.016 18V5.592H0.096V1.2H15.6V5.592H10.68V18H5.016ZM22.2551 7.44H29.7431V11.52H22.2551V7.44ZM22.6391 13.728H31.0391V18H17.0711V1.2H30.7271V5.472H22.6391V13.728ZM41.9076 18.384C40.5636 18.384 39.3156 18.176 38.1636 17.76C37.0276 17.328 36.0356 16.72 35.1876 15.936C34.3556 15.152 33.7076 14.224 33.2436 13.152C32.7796 12.08 32.5476 10.896 32.5476 9.6C32.5476 8.304 32.7796 7.12 33.2436 6.048C33.7076 4.976 34.3556 4.048 35.1876 3.264C36.0356 2.48 37.0276 1.88 38.1636 1.464C39.3156 1.032 40.5636 0.816 41.9076 0.816C43.5556 0.816 45.0116 1.104 46.2756 1.68C47.5556 2.256 48.6116 3.088 49.4436 4.176L45.8676 7.368C45.3716 6.744 44.8196 6.264 44.2116 5.928C43.6196 5.576 42.9476 5.4 42.1956 5.4C41.6036 5.4 41.0676 5.496 40.5876 5.688C40.1076 5.88 39.6916 6.16 39.3396 6.528C39.0036 6.896 38.7396 7.344 38.5476 7.872C38.3556 8.384 38.2596 8.96 38.2596 9.6C38.2596 10.24 38.3556 10.824 38.5476 11.352C38.7396 11.864 39.0036 12.304 39.3396 12.672C39.6916 13.04 40.1076 13.32 40.5876 13.512C41.0676 13.704 41.6036 13.8 42.1956 13.8C42.9476 13.8 43.6196 13.632 44.2116 13.296C44.8196 12.944 45.3716 12.456 45.8676 11.832L49.4436 15.024C48.6116 16.096 47.5556 16.928 46.2756 17.52C45.0116 18.096 43.5556 18.384 41.9076 18.384ZM61.9749 1.2H67.6389V18H61.9749V1.2ZM56.7429 18H51.0789V1.2H56.7429V18ZM62.3589 11.808H56.3589V7.152H62.3589V11.808ZM77.5633 18V1.2H82.2193L90.7633 11.424H88.6033V1.2H94.1233V18H89.4673L80.9233 7.776H83.0833V18H77.5633ZM102.036 7.44H109.524V11.52H102.036V7.44ZM102.42 13.728H110.82V18H96.8524V1.2H110.508V5.472H102.42V13.728ZM117.014 18L111.638 1.2H117.47L121.814 15.384H118.886L123.494 1.2H128.702L132.998 15.384H130.19L134.726 1.2H140.102L134.726 18H128.654L125.15 6.384H126.782L123.086 18H117.014ZM147.624 18.384C146.216 18.384 144.856 18.224 143.544 17.904C142.232 17.584 141.152 17.168 140.304 16.656L142.128 12.528C142.928 12.992 143.816 13.368 144.792 13.656C145.784 13.928 146.744 14.064 147.672 14.064C148.216 14.064 148.64 14.032 148.944 13.968C149.264 13.888 149.496 13.784 149.64 13.656C149.784 13.512 149.856 13.344 149.856 13.152C149.856 12.848 149.688 12.608 149.352 12.432C149.016 12.256 148.568 12.112 148.008 12C147.464 11.872 146.864 11.744 146.208 11.616C145.552 11.472 144.888 11.288 144.216 11.064C143.56 10.84 142.952 10.544 142.392 10.176C141.848 9.808 141.408 9.328 141.072 8.736C140.736 8.128 140.568 7.376 140.568 6.48C140.568 5.44 140.856 4.496 141.432 3.648C142.024 2.784 142.896 2.096 144.048 1.584C145.216 1.072 146.664 0.816 148.392 0.816C149.528 0.816 150.648 0.935999 151.752 1.176C152.856 1.416 153.848 1.784 154.728 2.28L153.024 6.384C152.192 5.968 151.384 5.656 150.6 5.448C149.832 5.24 149.08 5.136 148.344 5.136C147.8 5.136 147.368 5.184 147.048 5.28C146.728 5.376 146.496 5.504 146.352 5.664C146.224 5.824 146.16 6 146.16 6.192C146.16 6.48 146.328 6.712 146.664 6.888C147 7.048 147.44 7.184 147.984 7.296C148.544 7.408 149.152 7.528 149.808 7.656C150.48 7.784 151.144 7.96 151.8 8.184C152.456 8.408 153.056 8.704 153.6 9.072C154.16 9.44 154.608 9.92 154.944 10.512C155.28 11.104 155.448 11.84 155.448 12.72C155.448 13.744 155.152 14.688 154.56 15.552C153.984 16.4 153.12 17.088 151.968 17.616C150.816 18.128 149.368 18.384 147.624 18.384Z" fill="#60A5FA"/>
</svg>
